<?xml version="1.0" standalone="no"?>
<!DOCTYPE svg PUBLIC "-//W3C//DTD SVG 20010904//EN"
 "http://www.w3.org/TR/2001/REC-SVG-20010904/DTD/svg10.dtd">
<svg version="1.0" xmlns="http://www.w3.org/2000/svg"
 width="369.000000pt" height="369.000000pt" viewBox="0 0 369.000000 369.000000"
 preserveAspectRatio="xMidYMid meet">
<metadata>
Created by potrace 1.11, written by Peter Selinger 2001-2013
</metadata>
<g transform="translate(0.000000,369.000000) scale(0.100000,-0.100000)"
fill="#000000" stroke="none">
<path d="M50 3672 c-53 -58 -50 0 -48 -929 3 -852 4 -887 32 -762 8 35 58 64
121 72 43 5 59 1 114 -26 l65 -32 26 -92 c29 -100 26 -113 -22 -113 -27 0 -27
-1 -30 -67 l-3 -68 -112 1 c-125 1 -143 8 -143 59 0 28 -24 65 -43 65 -4 0 -7
-28 -7 -62 0 -48 3 -59 12 -50 7 7 15 12 19 12 13 0 -3 -115 -17 -126 -8 -6
-14 -28 -14 -49 0 -36 1 -37 28 -30 15 4 46 8 69 9 24 1 51 10 63 21 11 10 20
15 20 11 0 -3 15 1 33 10 32 17 49 34 95 94 14 18 33 30 47 30 12 0 28 7 35
15 7 8 16 12 21 9 5 -3 16 13 25 36 22 55 44 49 69 -20 11 -30 23 -60 26 -65
3 -6 12 -31 19 -58 7 -26 17 -50 21 -53 5 -3 3 -14 -4 -25 -10 -16 -9 -21 3
-29 13 -9 13 -10 -1 -10 -9 0 -21 11 -28 23 -15 28 -56 26 -72 -4 -5 -11 -7
-19 -4 -19 4 0 -7 -11 -23 -25 -17 -14 -36 -25 -43 -25 -7 0 -9 -3 -5 -7 7 -8
11 -9 37 -12 6 0 4 -8 -5 -16 -10 -10 -24 -13 -41 -9 -20 5 -25 3 -25 -14 0
-22 -55 -48 -65 -31 -10 14 -25 11 -25 -7 0 -10 -7 -7 -23 12 l-24 27 -7 -27
c-4 -15 -12 -25 -19 -23 -13 5 -76 -38 -90 -60 -5 -8 -17 -11 -27 -8 -10 3
-20 0 -23 -8 -3 -10 -15 -13 -31 -10 l-26 5 0 -296 c0 -174 4 -296 9 -296 5 0
15 -15 21 -34 6 -19 18 -40 26 -46 7 -7 14 -21 14 -32 0 -14 5 -18 19 -13 14
4 20 0 23 -20 3 -14 1 -28 -3 -31 -5 -3 -9 -1 -9 4 0 5 -8 12 -18 16 -9 3 -25
11 -36 18 -15 10 -19 10 -23 0 -3 -6 -9 -10 -14 -6 -5 3 -9 -90 -9 -229 0
-207 2 -236 16 -241 9 -3 358 -6 775 -6 718 0 760 1 778 19 28 28 50 33 44 10
-4 -15 -2 -18 11 -13 9 3 16 13 16 21 0 8 8 13 18 12 21 -4 62 21 62 38 0 6 9
15 20 18 11 3 20 9 20 13 0 4 11 8 25 8 15 1 25 -3 25 -12 0 -8 7 -14 16 -14
9 0 12 -5 8 -11 -5 -9 1 -10 22 -4 16 4 34 8 39 9 6 1 16 5 23 9 15 10 32 0
32 -19 0 -17 16 -19 26 -3 3 6 1 15 -6 19 -19 11 8 69 29 63 19 -5 46 33 31
42 -17 10 -11 23 14 29 38 9 66 106 41 146 -6 10 -4 12 9 7 14 -5 15 -3 6 12
-8 15 -6 20 10 24 23 6 27 37 5 37 -8 0 -15 6 -15 14 0 8 -8 17 -17 20 -14 6
-14 9 5 22 12 8 20 19 17 24 -8 14 6 40 22 40 11 0 14 9 11 36 -3 26 1 41 17
59 27 29 41 95 19 95 -8 0 -14 -8 -14 -17 0 -15 -2 -15 -14 2 -8 11 -12 24
-10 30 3 8 -38 11 -133 11 -128 0 -142 2 -193 27 -59 28 -76 32 -187 42 -72 7
-77 10 -74 48 1 9 -4 17 -12 17 -18 0 -67 -39 -49 -40 6 0 12 -4 12 -10 0 -14
-57 -13 -66 1 -3 6 -17 9 -29 7 -16 -4 -22 -1 -18 9 3 7 14 13 24 13 14 0 19
7 19 25 0 31 25 33 42 5 15 -24 28 -26 28 -5 0 8 -6 15 -14 15 -13 0 -31 28
-23 36 2 2 19 -1 38 -6 44 -13 49 -13 49 3 0 15 98 59 112 51 5 -3 15 0 23 6
12 10 15 10 15 -1 1 -10 4 -8 11 4 5 9 16 17 24 17 8 0 29 6 47 14 18 8 49 21
70 30 20 9 43 16 52 16 9 0 16 4 16 8 0 9 69 42 87 42 16 0 94 81 104 108 6
15 4 34 -6 58 -19 45 -10 117 22 166 14 24 23 53 23 78 0 40 -1 41 -29 37 -16
-3 -42 -12 -57 -20 -16 -9 -38 -20 -50 -25 -11 -6 -38 -31 -60 -57 -21 -25
-54 -62 -72 -82 l-33 -36 -87 7 c-48 3 -107 13 -132 21 -25 7 -63 19 -86 24
-22 6 -51 20 -63 30 -13 11 -26 21 -29 23 -26 12 -122 210 -122 251 0 9 -14
53 -31 99 -50 135 -51 346 -2 365 23 9 127 -13 203 -44 36 -14 74 -29 85 -33
11 -4 33 -13 48 -19 38 -15 68 -14 124 5 71 23 79 35 47 65 -24 22 -33 24
-129 24 l-104 0 -39 38 c-37 36 -42 38 -83 33 -48 -7 -60 -2 -78 31 -15 29
-13 64 5 88 11 15 25 20 60 18 31 -1 57 6 87 23 52 30 97 30 154 2 41 -20 47
-21 91 -8 93 27 127 25 183 -9 38 -24 61 -31 92 -30 91 5 126 -50 96 -150 -9
-30 -7 -47 10 -98 12 -34 21 -76 21 -94 0 -35 -47 -218 -60 -234 -18 -22 -15
-95 3 -95 16 0 143 124 207 202 25 30 61 65 81 76 33 19 40 20 79 8 24 -7 46
-18 48 -24 8 -24 20 -11 31 32 6 24 18 46 26 50 8 3 15 14 15 25 0 11 9 25 21
31 11 6 19 16 16 23 -4 14 21 47 65 83 8 6 20 8 27 6 8 -3 18 3 23 12 5 9 17
16 26 16 10 0 25 9 34 19 9 10 22 23 30 27 21 13 60 73 54 83 -6 9 20 35 46
44 11 4 15 13 11 26 -4 17 2 24 31 36 20 9 47 13 61 9 15 -4 25 -2 25 5 0 6
-7 11 -15 11 -18 0 -20 20 -2 20 7 1 5 6 -5 14 -21 15 -24 56 -6 74 9 9 8 12
-5 12 -11 0 -17 8 -17 24 0 14 -9 31 -20 39 -11 7 -31 30 -45 51 -32 47 -45
63 -69 84 -11 9 -40 37 -66 62 -59 57 -117 107 -129 112 -5 2 -59 51 -120 110
-132 127 -222 198 -250 198 -11 0 -23 5 -26 10 -3 6 -10 10 -15 10 -5 0 2 -32
16 -72 32 -94 32 -147 -1 -182 -13 -14 -33 -26 -45 -26 -25 0 -95 34 -123 60
-37 35 -83 50 -154 50 -38 0 -92 7 -119 15 -27 8 -76 16 -109 19 -33 2 -67 7
-75 10 -8 3 -28 8 -45 11 -16 2 -50 8 -74 14 -56 11 -92 -1 -115 -39 -23 -39
-58 -48 -87 -22 -28 27 -20 78 19 125 15 17 42 53 60 79 29 42 31 50 20 68
-19 32 -94 23 -187 -23 -40 -21 -78 -37 -84 -37 -5 0 -28 -15 -51 -33 -23 -19
-57 -42 -76 -53 -19 -10 -43 -27 -54 -36 -11 -10 -26 -18 -35 -18 -8 0 -22 -6
-30 -13 -42 -35 -174 -50 -185 -21 -5 13 -15 15 -46 11 -22 -3 -40 -1 -40 4 0
6 -7 6 -18 0 -25 -13 -95 -8 -100 7 -5 16 -22 15 -22 -1 0 -9 -15 -12 -52 -11
-29 1 -54 3 -55 4 -2 1 -6 3 -10 4 -20 4 -34 19 -29 32 3 8 1 14 -4 14 -6 0
-10 -9 -10 -19 0 -10 -7 -22 -16 -25 -8 -3 -12 -10 -9 -16 3 -6 -5 -34 -18
-63 -14 -28 -28 -81 -32 -117 -4 -36 -10 -69 -14 -75 -5 -9 -7 -39 -13 -180
-1 -16 4 -53 11 -82 7 -28 10 -62 6 -73 -6 -19 -12 -21 -41 -16 -42 8 -118 42
-131 58 -33 42 -56 256 -32 299 10 19 12 18 40 -18 17 -21 42 -41 55 -45 23
-6 27 -2 45 40 16 37 21 77 25 187 3 77 9 167 14 200 6 33 10 89 10 125 0 36
7 96 15 135 8 38 15 73 15 77 0 5 -51 8 -112 7 -93 0 -116 -3 -128 -17z m30
-493 c-11 -38 -26 -55 -17 -19 4 14 7 31 7 38 0 6 4 12 9 12 6 0 6 -12 1 -31z
m2237 -191 c13 -12 23 -25 23 -30 0 -4 13 -30 30 -56 58 -95 118 -304 105
-370 -13 -68 -34 -72 -112 -20 -91 62 -284 114 -434 117 -63 2 -132 4 -154 5
-48 4 -155 36 -155 48 0 4 -11 8 -24 8 -14 0 -28 5 -31 10 -5 8 -11 8 -20 0
-7 -6 -33 -12 -57 -14 -23 -2 -74 -11 -111 -20 -37 -9 -72 -14 -78 -10 -5 3
-15 1 -22 -4 -17 -14 -129 -24 -146 -13 -11 7 -13 25 -7 81 3 40 11 82 17 93
15 29 50 67 62 67 5 0 18 11 28 24 20 26 56 40 65 25 3 -5 15 -9 28 -9 12 0
32 -9 44 -20 12 -11 26 -20 31 -20 14 0 84 -39 96 -53 6 -7 31 -29 57 -50 l48
-38 81 6 c45 4 91 9 103 12 11 3 42 9 68 13 54 10 93 29 130 63 44 41 81 63
140 85 32 12 79 37 105 57 27 19 52 35 57 35 6 0 20 -10 33 -22z m707 -430 c5
-24 3 -28 -14 -28 -15 0 -19 5 -16 23 3 12 5 29 5 37 1 21 17 0 25 -32z
m-2890 -170 c4 -21 3 -38 -2 -38 -9 0 -32 66 -32 91 0 27 28 -15 34 -53z m131
-118 c-3 -5 -10 -10 -16 -10 -5 0 -9 5 -9 10 0 6 7 10 16 10 8 0 12 -4 9 -10z
m55 -35 c6 -8 8 -20 4 -26 -5 -8 -3 -9 5 -4 24 14 50 -40 67 -140 3 -16 10
-40 16 -52 14 -28 4 -41 -17 -23 -9 7 -13 21 -10 31 4 11 2 19 -2 19 -5 0 -15
17 -22 37 -13 35 -14 36 -22 15 -9 -23 -24 -29 -33 -13 -10 16 -16 171 -7 171
5 0 14 -7 21 -15z m700 -207 c0 -4 6 -8 14 -8 14 0 33 -90 23 -107 -5 -7 3
-45 26 -138 2 -5 16 -47 31 -92 15 -45 24 -88 20 -94 -3 -6 -2 -14 4 -18 18
-11 24 -55 10 -73 -15 -21 -77 -31 -95 -16 -9 7 -15 6 -19 -6 -3 -9 -14 -16
-23 -17 -12 0 -12 -2 4 -8 19 -8 19 -8 0 -19 -19 -11 -19 -12 3 -18 17 -5 22
-14 22 -41 0 -20 9 -46 20 -60 11 -14 20 -33 20 -43 0 -10 9 -29 20 -43 11
-14 20 -34 20 -46 0 -11 6 -24 14 -28 7 -4 25 -25 39 -46 14 -21 29 -37 32
-35 4 2 12 -7 18 -19 12 -21 111 -93 128 -93 5 0 12 -7 16 -16 5 -13 7 -13 14
-2 6 10 9 10 9 1 0 -7 -9 -18 -19 -25 -12 -7 -17 -16 -11 -23 5 -7 -12 -10
-55 -10 -35 0 -61 3 -58 8 2 4 -7 2 -21 -4 -18 -9 -33 -9 -56 0 -18 6 -37 8
-42 5 -6 -4 -14 0 -19 7 -7 12 -10 12 -18 1 -6 -11 -9 -9 -14 7 -3 14 -10 18
-25 14 -17 -4 -23 1 -28 21 -3 15 -17 35 -30 45 -13 10 -24 24 -24 30 0 6 -6
8 -13 6 -17 -7 -38 45 -33 83 2 18 1 32 -3 32 -3 0 -12 9 -19 20 -17 27 -6 45
16 28 15 -11 15 -11 6 2 -5 8 -9 26 -8 40 2 14 0 32 -3 40 -9 21 -10 170 -2
170 4 0 5 10 1 22 -5 20 -6 21 -12 3 -10 -28 -22 39 -13 73 6 24 5 26 -10 13
-15 -12 -17 -10 -17 22 0 19 -5 37 -12 39 -6 2 -12 29 -13 63 -1 35 -6 60 -13
63 -15 5 -16 32 -1 32 5 0 7 5 4 10 -4 6 -1 17 5 25 7 8 10 22 6 30 -3 9 0 15
9 15 8 0 15 8 15 18 0 10 7 27 15 38 8 12 12 24 9 27 -3 3 4 10 15 17 12 6 21
17 21 25 0 8 4 15 8 15 5 0 14 11 20 24 8 19 18 24 41 24 17 -1 31 -5 31 -10z
m-593 -121 c-3 -20 -5 -18 -19 13 -9 19 -14 39 -11 43 9 15 35 -32 30 -56z
m23 -47 c0 -5 -5 -10 -11 -10 -5 0 -7 5 -4 10 3 6 8 10 11 10 2 0 4 -4 4 -10z
m-313 -1472 c-3 -8 -6 -5 -6 6 -1 11 2 17 5 13 3 -3 4 -12 1 -19z m1723 -274
c0 -14 -3 -14 -15 -4 -8 7 -15 14 -15 16 0 2 7 4 15 4 8 0 15 -7 15 -16z"/>
<path d="M331 2174 c0 -11 3 -14 6 -6 3 7 2 16 -1 19 -3 4 -6 -2 -5 -13z"/>
<path d="M875 1600 c-3 -5 -1 -10 4 -10 6 0 11 5 11 10 0 6 -2 10 -4 10 -3 0
-8 -4 -11 -10z"/>
<path d="M1190 900 c0 -5 5 -10 10 -10 6 0 10 5 10 10 0 6 -4 10 -10 10 -5 0
-10 -4 -10 -10z"/>
<path d="M1053 3681 c27 -4 67 -4 90 0 31 5 18 6 -48 6 -72 0 -80 -1 -42 -6z"/>
<path d="M2361 3676 c59 -30 160 -56 258 -66 97 -10 105 -10 125 8 18 17 55
30 101 37 37 6 75 19 75 26 0 5 -132 9 -292 9 -255 0 -290 -2 -267 -14z"/>
<path d="M3394 3673 c24 -78 29 -144 31 -367 3 -220 0 -263 -19 -372 -24 -132
-21 -173 12 -153 10 6 29 28 43 47 22 32 24 45 22 126 -3 111 7 138 65 167 48
24 47 24 79 -36 19 -35 31 -45 50 -38 10 4 13 67 13 324 l0 319 -151 0 c-139
0 -150 -1 -145 -17z"/>
<path d="M3671 2879 c-13 -44 -115 -248 -148 -295 -11 -16 -40 -63 -63 -104
-52 -89 -91 -134 -134 -151 -46 -18 -66 -39 -66 -69 0 -23 5 -29 32 -34 17 -3
34 -2 38 3 3 6 23 18 44 26 80 34 164 -15 173 -98 4 -30 1 -47 -7 -52 -18 -11
-40 22 -40 57 0 24 -4 28 -30 28 -17 0 -40 6 -51 13 -17 10 -23 10 -26 0 -3
-7 -16 -13 -29 -13 -30 0 -34 -8 -39 -101 -7 -110 -9 -122 -22 -127 -7 -2 -13
-9 -13 -17 0 -7 -14 -15 -32 -19 -36 -7 -48 4 -48 45 0 34 -27 59 -36 34 -4
-9 -2 -27 5 -41 6 -14 11 -40 11 -59 0 -28 4 -35 20 -35 11 0 20 5 20 11 0 6
11 -3 25 -19 14 -17 25 -42 25 -60 0 -36 31 -79 49 -67 9 5 12 26 9 63 -2 37
1 57 9 59 14 5 27 -20 43 -86 6 -23 14 -40 18 -36 4 3 12 34 19 67 15 75 29
90 85 92 23 1 48 5 55 9 6 4 37 4 67 -1 l56 -9 0 514 c0 282 -2 513 -3 513 -2
0 -9 -18 -16 -41z m-42 -703 c9 -11 9 -20 2 -34 -7 -13 -7 -22 1 -30 12 -12 4
-42 -11 -42 -12 0 -18 17 -26 74 -6 37 -4 46 8 46 8 0 20 -6 26 -14z"/>
<path d="M155 2779 c-4 -6 -4 -13 -1 -16 8 -8 36 5 36 17 0 13 -27 13 -35 -1z"/>
<path d="M3050 2490 c0 -5 5 -10 10 -10 6 0 10 5 10 10 0 6 -4 10 -10 10 -5 0
-10 -4 -10 -10z"/>
<path d="M3045 2400 c3 -5 8 -10 11 -10 2 0 4 5 4 10 0 6 -5 10 -11 10 -5 0
-7 -4 -4 -10z"/>
<path d="M3057 2374 c-4 -4 -7 -17 -7 -28 1 -19 1 -20 11 -3 11 19 8 43 -4 31z"/>
<path d="M1986 2213 c-9 -23 8 -37 38 -29 23 6 25 9 16 26 -13 24 -45 26 -54
3z"/>
<path d="M3095 1935 c-3 -14 -7 -36 -10 -49 -6 -28 -1 -33 40 -37 24 -3 30 0
30 16 0 13 -7 20 -20 20 -17 0 -20 6 -17 38 4 42 -15 52 -23 12z"/>
<path d="M3416 1603 c-12 -13 -6 -61 10 -67 26 -10 51 -7 64 9 10 12 9 19 -3
38 -14 21 -57 34 -71 20z"/>
<path d="M2755 1442 c-12 -9 -27 -29 -35 -44 -7 -16 -22 -28 -32 -28 -10 0
-18 -4 -18 -10 0 -12 -15 -30 -94 -117 -131 -142 -156 -190 -156 -298 0 -85
20 -112 142 -191 57 -37 136 -89 176 -116 76 -52 104 -56 97 -16 -2 13 -9 70
-15 128 -14 137 -37 270 -61 349 -25 82 -24 162 1 242 12 35 20 76 18 91 -3
26 -4 26 -23 10z"/>
<path d="M291 1353 c-9 -16 -12 -16 -21 -3 -8 13 -10 13 -10 -2 0 -12 8 -18
24 -18 28 0 43 17 28 32 -7 7 -13 4 -21 -9z"/>
<path d="M3642 643 c-48 -5 -52 -22 -8 -34 36 -10 56 -2 56 22 0 10 -1 18 -2
17 -2 -1 -22 -3 -46 -5z"/>
<path d="M3485 620 c-3 -5 -2 -10 4 -10 5 0 13 5 16 10 3 6 2 10 -4 10 -5 0
-13 -4 -16 -10z"/>
<path d="M3641 531 c-13 -17 -35 -31 -54 -34 -18 -3 -41 -8 -52 -12 -14 -5
-16 -4 -6 3 20 14 -2 22 -35 12 -16 -4 -23 -9 -16 -9 19 -1 9 -24 -11 -27 -29
-4 -56 -46 -50 -77 5 -25 3 -28 -18 -26 -46 4 -61 0 -55 -16 3 -8 0 -15 -6
-15 -6 0 1 -11 16 -25 29 -27 34 -50 11 -59 -23 -9 -18 -33 13 -54 30 -21 75
-35 66 -21 -9 15 6 10 26 -9 16 -15 18 -24 10 -51 -8 -28 -6 -39 10 -61 11
-16 20 -33 20 -39 0 -7 31 -11 90 -11 l90 0 0 251 c0 206 -2 250 -13 246 -8
-3 -20 -1 -28 4 -8 5 -9 9 -3 9 7 0 19 11 28 25 24 37 -5 33 -33 -4z m-163
-128 c-6 -7 -8 -20 -4 -28 3 -8 1 -15 -4 -15 -16 0 -21 19 -14 55 6 32 8 34
19 18 9 -13 10 -22 3 -30z m-28 -122 c0 -12 -29 -35 -36 -28 -11 10 5 37 21
37 8 0 15 -4 15 -9z m58 -197 c-11 -11 -18 -12 -22 -5 -4 6 0 11 8 11 9 0 16
5 16 12 0 6 3 8 7 4 4 -3 0 -14 -9 -22z"/>
<path d="M3386 495 c-10 -8 -15 -18 -11 -24 3 -6 1 -11 -4 -11 -16 0 -13 -19
4 -36 13 -14 16 -14 21 0 3 9 12 16 20 16 19 0 18 29 -2 37 -11 4 -12 8 -4 13
7 4 8 10 3 13 -4 3 -16 -1 -27 -8z"/>
<path d="M3320 290 c0 -5 5 -10 10 -10 6 0 10 5 10 10 0 6 -4 10 -10 10 -5 0
-10 -4 -10 -10z"/>
</g>
</svg>
